<svg width="224" height="23" viewBox="0 0 224 23" fill="none" xmlns="http://www.w3.org/2000/svg">
<path d="M5.25003 11.97H10.5L17.07 21.48H11.13L5.25003 11.97ZM2.93255e-05 0.479979H5.07003V21.48H2.93255e-05V0.479979ZM3.18003 4.76998V0.479979H7.65003C9.45003 0.479979 10.95 0.769979 12.15 1.34998C13.35 1.92998 14.26 2.73998 14.88 3.77998C15.5 4.79998 15.81 5.98998 15.81 7.34998C15.81 8.68998 15.5 9.87998 14.88 10.92C14.26 11.94 13.35 12.74 12.15 13.32C10.95 13.9 9.45003 14.19 7.65003 14.19H3.18003V10.26H7.29003C7.97003 10.26 8.55003 10.16 9.03003 9.95998C9.53003 9.73998 9.91003 9.42998 10.17 9.02998C10.43 8.60998 10.56 8.10998 10.56 7.52998C10.56 6.94998 10.43 6.45998 10.17 6.05998C9.91003 5.63998 9.53003 5.31998 9.03003 5.09998C8.55003 4.87998 7.97003 4.76998 7.29003 4.76998H3.18003ZM23.5939 10.98C23.5939 12.22 23.8339 13.32 24.3139 14.28C24.8139 15.22 25.5039 15.96 26.3839 16.5C27.2839 17.04 28.3339 17.31 29.5339 17.31C30.7139 17.31 31.7439 17.04 32.6239 16.5C33.5239 15.96 34.2139 15.22 34.6939 14.28C35.1939 13.32 35.4439 12.22 35.4439 10.98C35.4439 9.73998 35.2039 8.64998 34.7239 7.70998C34.2439 6.74998 33.5639 5.99998 32.6839 5.45998C31.8039 4.91998 30.7539 4.64998 29.5339 4.64998C28.3339 4.64998 27.2839 4.91998 26.3839 5.45998C25.5039 5.99998 24.8139 6.74998 24.3139 7.70998C23.8339 8.64998 23.5939 9.73998 23.5939 10.98ZM18.2239 10.98C18.2239 9.35998 18.5039 7.87998 19.0639 6.53998C19.6439 5.19998 20.4439 4.03998 21.4639 3.05998C22.4839 2.07998 23.6839 1.32998 25.0639 0.80998C26.4439 0.26998 27.9339 -2.01464e-05 29.5339 -2.01464e-05C31.1539 -2.01464e-05 32.6439 0.26998 34.0039 0.80998C35.3839 1.32998 36.5839 2.07998 37.6039 3.05998C38.6239 4.03998 39.4139 5.19998 39.9739 6.53998C40.5339 7.87998 40.8139 9.35998 40.8139 10.98C40.8139 12.6 40.5339 14.09 39.9739 15.45C39.4339 16.81 38.6539 17.99 37.6339 18.99C36.6339 19.99 35.4439 20.77 34.0639 21.33C32.6839 21.87 31.1739 22.14 29.5339 22.14C27.8739 22.14 26.3539 21.87 24.9739 21.33C23.5939 20.77 22.3939 19.99 21.3739 18.99C20.3739 17.99 19.5939 16.81 19.0339 15.45C18.4939 14.09 18.2239 12.6 18.2239 10.98ZM47.8425 11.04V8.81998H51.2325C51.8125 8.81998 52.3025 8.72998 52.7025 8.54998C53.1225 8.36998 53.4425 8.11998 53.6625 7.79998C53.8825 7.45998 53.9925 7.04998 53.9925 6.56998C53.9925 5.84998 53.7525 5.30998 53.2725 4.94998C52.7925 4.58998 52.1125 4.40998 51.2325 4.40998H49.1325V17.55H51.7125C52.3725 17.55 52.9625 17.47 53.4825 17.31C54.0025 17.13 54.4125 16.85 54.7125 16.47C55.0325 16.07 55.1925 15.53 55.1925 14.85C55.1925 14.41 55.1025 14.03 54.9225 13.71C54.7425 13.39 54.4925 13.13 54.1725 12.93C53.8525 12.73 53.4825 12.59 53.0625 12.51C52.6625 12.41 52.2125 12.36 51.7125 12.36H47.8425V9.59998H52.2825C53.3025 9.59998 54.2925 9.70998 55.2525 9.92998C56.2125 10.15 57.0825 10.51 57.8625 11.01C58.6425 11.49 59.2625 12.11 59.7225 12.87C60.2025 13.61 60.4425 14.51 60.4425 15.57C60.4425 16.97 60.1025 18.1 59.4225 18.96C58.7625 19.82 57.8225 20.46 56.6025 20.88C55.3825 21.28 53.9425 21.48 52.2825 21.48H44.0625V0.479979H51.7725C53.2325 0.479979 54.5125 0.679979 55.6125 1.07998C56.7325 1.45998 57.6125 2.04998 58.2525 2.84998C58.9125 3.62998 59.2425 4.61998 59.2425 5.81998C59.2425 6.91998 58.9125 7.85998 58.2525 8.63998C57.6125 9.41998 56.7325 10.02 55.6125 10.44C54.5125 10.84 53.2325 11.04 51.7725 11.04H47.8425ZM68.1544 10.98C68.1544 12.22 68.3944 13.32 68.8744 14.28C69.3744 15.22 70.0644 15.96 70.9444 16.5C71.8444 17.04 72.8944 17.31 74.0944 17.31C75.2744 17.31 76.3044 17.04 77.1844 16.5C78.0844 15.96 78.7744 15.22 79.2544 14.28C79.7544 13.32 80.0044 12.22 80.0044 10.98C80.0044 9.73998 79.7644 8.64998 79.2844 7.70998C78.8044 6.74998 78.1244 5.99998 77.2444 5.45998C76.3644 4.91998 75.3144 4.64998 74.0944 4.64998C72.8944 4.64998 71.8444 4.91998 70.9444 5.45998C70.0644 5.99998 69.3744 6.74998 68.8744 7.70998C68.3944 8.64998 68.1544 9.73998 68.1544 10.98ZM62.7844 10.98C62.7844 9.35998 63.0644 7.87998 63.6244 6.53998C64.2044 5.19998 65.0044 4.03998 66.0244 3.05998C67.0444 2.07998 68.2444 1.32998 69.6244 0.80998C71.0044 0.26998 72.4944 -2.01464e-05 74.0944 -2.01464e-05C75.7144 -2.01464e-05 77.2044 0.26998 78.5644 0.80998C79.9444 1.32998 81.1444 2.07998 82.1644 3.05998C83.1844 4.03998 83.9744 5.19998 84.5344 6.53998C85.0944 7.87998 85.3744 9.35998 85.3744 10.98C85.3744 12.6 85.0944 14.09 84.5344 15.45C83.9944 16.81 83.2144 17.99 82.1944 18.99C81.1944 19.99 80.0044 20.77 78.6244 21.33C77.2444 21.87 75.7344 22.14 74.0944 22.14C72.4344 22.14 70.9144 21.87 69.5344 21.33C68.1544 20.77 66.9544 19.99 65.9344 18.99C64.9344 17.99 64.1544 16.81 63.5944 15.45C63.0544 14.09 62.7844 12.6 62.7844 10.98ZM87.5049 19.44C87.5049 18.68 87.7749 18.03 88.3149 17.49C88.8549 16.95 89.5249 16.68 90.3249 16.68C91.1649 16.68 91.8449 16.95 92.3649 17.49C92.8849 18.03 93.1449 18.68 93.1449 19.44C93.1449 20.2 92.8849 20.85 92.3649 21.39C91.8449 21.93 91.1649 22.2 90.3249 22.2C89.5249 22.2 88.8549 21.93 88.3149 21.39C87.7749 20.85 87.5049 20.2 87.5049 19.44ZM99.6928 14.1C100.113 14.86 100.583 15.52 101.103 16.08C101.643 16.64 102.223 17.07 102.843 17.37C103.483 17.67 104.153 17.82 104.853 17.82C105.593 17.82 106.203 17.64 106.683 17.28C107.163 16.9 107.403 16.39 107.403 15.75C107.403 15.21 107.263 14.78 106.983 14.46C106.703 14.12 106.253 13.8 105.633 13.5C105.013 13.2 104.193 12.86 103.173 12.48C102.673 12.3 102.093 12.05 101.433 11.73C100.793 11.41 100.183 11 99.6028 10.5C99.0228 9.97998 98.5428 9.35998 98.1628 8.63998C97.7828 7.89998 97.5928 7.00998 97.5928 5.96998C97.5928 4.72998 97.9128 3.65998 98.5528 2.75998C99.2128 1.85998 100.093 1.17998 101.193 0.71998C102.313 0.23998 103.553 -2.01464e-05 104.913 -2.01464e-05C106.313 -2.01464e-05 107.523 0.22998 108.543 0.68998C109.583 1.14998 110.443 1.72998 111.123 2.42998C111.803 3.12998 112.323 3.83998 112.683 4.55998L108.813 6.71998C108.513 6.21998 108.163 5.78998 107.763 5.42998C107.383 5.04998 106.953 4.75998 106.473 4.55998C106.013 4.33998 105.513 4.22998 104.973 4.22998C104.253 4.22998 103.703 4.38998 103.323 4.70998C102.943 5.00998 102.753 5.38998 102.753 5.84998C102.753 6.32998 102.933 6.74998 103.293 7.10998C103.673 7.46998 104.203 7.79998 104.883 8.09998C105.583 8.39998 106.423 8.71998 107.403 9.05998C108.143 9.33998 108.833 9.66998 109.473 10.05C110.113 10.41 110.673 10.85 111.153 11.37C111.653 11.89 112.043 12.49 112.323 13.17C112.603 13.85 112.743 14.63 112.743 15.51C112.743 16.57 112.523 17.52 112.083 18.36C111.663 19.18 111.083 19.87 110.343 20.43C109.623 20.99 108.793 21.41 107.853 21.69C106.933 21.99 105.983 22.14 105.003 22.14C103.643 22.14 102.373 21.9 101.193 21.42C100.033 20.92 99.0228 20.25 98.1628 19.41C97.3028 18.57 96.6328 17.65 96.1528 16.65L99.6928 14.1ZM120.453 10.98C120.453 12.26 120.743 13.37 121.323 14.31C121.903 15.23 122.663 15.93 123.603 16.41C124.563 16.89 125.613 17.13 126.753 17.13C127.753 17.13 128.633 17 129.393 16.74C130.153 16.48 130.833 16.14 131.433 15.72C132.033 15.3 132.563 14.85 133.023 14.37V19.83C132.183 20.49 131.263 21.01 130.263 21.39C129.263 21.77 127.993 21.96 126.453 21.96C124.773 21.96 123.223 21.7 121.803 21.18C120.383 20.66 119.163 19.91 118.143 18.93C117.123 17.95 116.333 16.79 115.773 15.45C115.213 14.11 114.933 12.62 114.933 10.98C114.933 9.33998 115.213 7.84998 115.773 6.50998C116.333 5.16998 117.123 4.00998 118.143 3.02998C119.163 2.04998 120.383 1.29998 121.803 0.779979C123.223 0.259979 124.773 -2.01464e-05 126.453 -2.01464e-05C127.993 -2.01464e-05 129.263 0.18998 130.263 0.56998C131.263 0.94998 132.183 1.46998 133.023 2.12998V7.58998C132.563 7.10998 132.033 6.65998 131.433 6.23998C130.833 5.79998 130.153 5.45998 129.393 5.21998C128.633 4.95998 127.753 4.82998 126.753 4.82998C125.613 4.82998 124.563 5.06998 123.603 5.54998C122.663 6.02998 121.903 6.72998 121.323 7.64998C120.743 8.56998 120.453 9.67998 120.453 10.98ZM138.578 12.69V8.12998H154.478V12.69H138.578ZM151.268 0.479979H156.338V21.48H151.268V0.479979ZM137.168 0.479979H142.238V21.48H137.168V0.479979ZM164.922 10.98C164.922 12.22 165.162 13.32 165.642 14.28C166.142 15.22 166.832 15.96 167.712 16.5C168.612 17.04 169.662 17.31 170.862 17.31C172.042 17.31 173.072 17.04 173.952 16.5C174.852 15.96 175.542 15.22 176.022 14.28C176.522 13.32 176.772 12.22 176.772 10.98C176.772 9.73998 176.532 8.64998 176.052 7.70998C175.572 6.74998 174.892 5.99998 174.012 5.45998C173.132 4.91998 172.082 4.64998 170.862 4.64998C169.662 4.64998 168.612 4.91998 167.712 5.45998C166.832 5.99998 166.142 6.74998 165.642 7.70998C165.162 8.64998 164.922 9.73998 164.922 10.98ZM159.552 10.98C159.552 9.35998 159.832 7.87998 160.392 6.53998C160.972 5.19998 161.772 4.03998 162.792 3.05998C163.812 2.07998 165.012 1.32998 166.392 0.80998C167.772 0.26998 169.262 -2.01464e-05 170.862 -2.01464e-05C172.482 -2.01464e-05 173.972 0.26998 175.332 0.80998C176.712 1.32998 177.912 2.07998 178.932 3.05998C179.952 4.03998 180.742 5.19998 181.302 6.53998C181.862 7.87998 182.142 9.35998 182.142 10.98C182.142 12.6 181.862 14.09 181.302 15.45C180.762 16.81 179.982 17.99 178.962 18.99C177.962 19.99 176.772 20.77 175.392 21.33C174.012 21.87 172.502 22.14 170.862 22.14C169.202 22.14 167.682 21.87 166.302 21.33C164.922 20.77 163.722 19.99 162.702 18.99C161.702 17.99 160.922 16.81 160.362 15.45C159.822 14.09 159.552 12.6 159.552 10.98ZM189.561 10.98C189.561 12.22 189.801 13.32 190.281 14.28C190.781 15.22 191.471 15.96 192.351 16.5C193.251 17.04 194.301 17.31 195.501 17.31C196.681 17.31 197.711 17.04 198.591 16.5C199.491 15.96 200.181 15.22 200.661 14.28C201.161 13.32 201.411 12.22 201.411 10.98C201.411 9.73998 201.171 8.64998 200.691 7.70998C200.211 6.74998 199.531 5.99998 198.651 5.45998C197.771 4.91998 196.721 4.64998 195.501 4.64998C194.301 4.64998 193.251 4.91998 192.351 5.45998C191.471 5.99998 190.781 6.74998 190.281 7.70998C189.801 8.64998 189.561 9.73998 189.561 10.98ZM184.191 10.98C184.191 9.35998 184.471 7.87998 185.031 6.53998C185.611 5.19998 186.411 4.03998 187.431 3.05998C188.451 2.07998 189.651 1.32998 191.031 0.80998C192.411 0.26998 193.901 -2.01464e-05 195.501 -2.01464e-05C197.121 -2.01464e-05 198.611 0.26998 199.971 0.80998C201.351 1.32998 202.551 2.07998 203.571 3.05998C204.591 4.03998 205.381 5.19998 205.941 6.53998C206.501 7.87998 206.781 9.35998 206.781 10.98C206.781 12.6 206.501 14.09 205.941 15.45C205.401 16.81 204.621 17.99 203.601 18.99C202.601 19.99 201.411 20.77 200.031 21.33C198.651 21.87 197.141 22.14 195.501 22.14C193.841 22.14 192.321 21.87 190.941 21.33C189.561 20.77 188.361 19.99 187.341 18.99C186.341 17.99 185.561 16.81 185.001 15.45C184.461 14.09 184.191 12.6 184.191 10.98ZM210.029 0.479979H215.099V17.13H223.529V21.48H210.029V0.479979Z" fill="white"/>
</svg>
